<svg viewBox="0 0 70 85" fill="none" stroke="currentColor" stroke-width="2" xmlns="http://www.w3.org/2000/svg">
  <path d="M35 5 C15 5 5 22 5 42 C5 62 15 80 35 80" stroke-linecap="round"/>
  <path d="M35 12 C20 12 12 26 12 42 C12 58 20 72 35 72 C50 72 58 58 58 42" stroke-linecap="round"/>
  <path d="M35 19 C24 19 18 30 18 42 C18 54 24 65 35 65 C46 65 52 54 52 42 C52 30 46 19 35 19" stroke-linecap="round"/>
  <path d="M35 26 C28 26 24 33 24 42 C24 51 28 58 35 58 C42 58 46 51 46 42" stroke-linecap="round"/>
  <path d="M65 42 C65 22 55 5 35 5" stroke-linecap="round"/>
</svg>
