<svg viewBox="0 0 70 85" fill="none" stroke="currentColor" stroke-width="1.2" xmlns="http://www.w3.org/2000/svg">
  <path d="M35 5 C15 5 5 22 5 42 C5 62 15 80 35 80" stroke-linecap="round"/>
  <path d="M35 12 C20 12 12 26 12 42 C12 58 20 72 35 72 C50 72 58 58 58 42" stroke-linecap="round"/>
  <path d="M35 19 C24 19 18 30 18 42 C18 54 24 65 35 65 C46 65 52 54 52 42 C52 30 46 19 35 19" stroke-linecap="round"/>
  <path d="M35 26 C28 26 24 33 24 42 C24 51 28 58 35 58 C42 58 46 51 46 42" stroke-linecap="round"/>
  <path d="M35 33 C31 33 29 37 29 42 C29 47 31 51 35 51 C39 51 41 47 41 42 C41 37 39 33 35 33" stroke-linecap="round"/>
  <path d="M65 42 C65 22 55 5 35 5" stroke-linecap="round"/>
  <path d="M58 42 C58 26 50 12 35 12" stroke-linecap="round"/>
</svg>
